<?xml version="1.0" encoding="UTF-8" standalone="no"?>
<!DOCTYPE svg PUBLIC "-//W3C//DTD SVG 1.1//EN" "http://www.w3.org/Graphics/SVG/1.1/DTD/svg11.dtd">
<svg width="100%" height="100%" viewBox="0 0 243 73" version="1.1" xmlns="http://www.w3.org/2000/svg" xmlns:xlink="http://www.w3.org/1999/xlink" xml:space="preserve" xmlns:serif="http://www.serif.com/" style="fill-rule:evenodd;clip-rule:evenodd;stroke-linejoin:round;stroke-miterlimit:1.41421;">
    <g transform="matrix(0.193584,0,0,0.193584,-70.831,-43.5568)">
        <g transform="matrix(1.29043,0,0,1.29043,-280.31,-270.74)">
            <g transform="matrix(1,0,0,1,25,0)">
                <g transform="matrix(17.3577,0,0,17.3577,-10486.2,-8375.9)">
                    <g transform="matrix(12,0,0,12,632.148,517.099)">
                        <path d="M0.314,0.013C0.403,0.013 0.474,-0.009 0.527,-0.053C0.58,-0.098 0.607,-0.154 0.607,-0.223C0.607,-0.312 0.56,-0.377 0.466,-0.417C0.447,-0.425 0.418,-0.436 0.381,-0.449L0.316,-0.473C0.277,-0.488 0.257,-0.506 0.257,-0.528C0.257,-0.555 0.285,-0.576 0.336,-0.576C0.392,-0.576 0.465,-0.551 0.509,-0.515L0.596,-0.657C0.521,-0.719 0.434,-0.75 0.333,-0.75C0.252,-0.75 0.186,-0.728 0.135,-0.685C0.084,-0.642 0.058,-0.587 0.058,-0.522C0.058,-0.437 0.099,-0.373 0.18,-0.33C0.201,-0.319 0.233,-0.307 0.274,-0.292L0.34,-0.27C0.38,-0.255 0.4,-0.236 0.4,-0.213C0.4,-0.178 0.362,-0.159 0.317,-0.159C0.239,-0.159 0.169,-0.19 0.107,-0.252L0.013,-0.115C0.09,-0.03 0.191,0.013 0.314,0.013Z" style="fill:rgb(71,73,72);fill-rule:nonzero;"/>
                    </g>
                    <g transform="matrix(12,0,0,12,639.18,517.099)">
                        <path d="M0.416,0.011C0.485,0.011 0.548,-0.003 0.605,-0.032C0.662,-0.061 0.708,-0.098 0.742,-0.143L0.618,-0.262C0.565,-0.199 0.501,-0.167 0.428,-0.167C0.372,-0.167 0.325,-0.186 0.286,-0.224C0.248,-0.263 0.229,-0.311 0.229,-0.368C0.229,-0.427 0.248,-0.476 0.286,-0.515C0.325,-0.554 0.372,-0.573 0.429,-0.573C0.496,-0.573 0.558,-0.542 0.615,-0.481L0.734,-0.606C0.666,-0.695 0.549,-0.752 0.417,-0.752C0.31,-0.752 0.22,-0.716 0.146,-0.643C0.073,-0.571 0.036,-0.479 0.036,-0.367C0.036,-0.256 0.072,-0.165 0.145,-0.094C0.218,-0.024 0.308,0.011 0.416,0.011Z" style="fill:rgb(71,73,72);fill-rule:nonzero;"/>
                    </g>
                    <g transform="matrix(12,0,0,12,661.236,517.099)">
                        <path d="M0.073,-0.739L0.073,0L0.26,0L0.26,-0.232L0.354,-0.232C0.453,-0.232 0.527,-0.255 0.574,-0.302C0.621,-0.349 0.645,-0.409 0.645,-0.482C0.645,-0.555 0.622,-0.616 0.576,-0.665C0.531,-0.714 0.461,-0.739 0.367,-0.739L0.073,-0.739ZM0.26,-0.4L0.26,-0.568L0.367,-0.568C0.419,-0.568 0.453,-0.532 0.453,-0.484C0.453,-0.437 0.422,-0.4 0.363,-0.4L0.26,-0.4Z" style="fill:rgb(71,73,72);fill-rule:nonzero;"/>
                    </g>
                    <g transform="matrix(12,0,0,12,668.604,517.099)">
                        <path d="M0.606,0L0.606,-0.173L0.261,-0.173L0.261,-0.285L0.581,-0.285L0.581,-0.457L0.261,-0.457L0.261,-0.566L0.607,-0.566L0.607,-0.739L0.073,-0.739L0.073,0L0.606,0Z" style="fill:rgb(71,73,72);fill-rule:nonzero;"/>
                    </g>
                    <g transform="matrix(12,0,0,12,675.912,517.099)">
                        <path d="M0.218,0L0.35,-0.233L0.478,0L0.692,0L0.471,-0.373L0.697,-0.739L0.48,-0.739L0.352,-0.513L0.235,-0.739L0.02,-0.739L0.231,-0.373L0.001,0L0.218,0Z" style="fill:rgb(71,73,72);fill-rule:nonzero;"/>
                    </g>
                </g>
                <g transform="matrix(0.795935,0,0,0.795935,288.768,22.8571)">
                    <g transform="matrix(72,0,0,72,758.411,806.727)">
                        <path d="M0.636,0L0.343,-0.739L0.31,-0.739L0.015,0L0.082,0L0.17,-0.224L0.481,-0.224L0.569,0L0.636,0ZM0.461,-0.281L0.19,-0.281L0.326,-0.63L0.461,-0.281Z" style="fill-rule:nonzero;"/>
                    </g>
                    <g transform="matrix(72,0,0,72,805.355,806.727)">
                        <path d="M0.355,-0.549C0.263,-0.549 0.186,-0.503 0.141,-0.426L0.141,-0.535L0.081,-0.535L0.081,0.22L0.141,0.22L0.141,-0.107C0.186,-0.032 0.263,0.012 0.355,0.012C0.431,0.012 0.494,-0.015 0.545,-0.069C0.596,-0.123 0.621,-0.189 0.621,-0.268C0.621,-0.347 0.596,-0.413 0.545,-0.467C0.494,-0.522 0.431,-0.549 0.355,-0.549ZM0.352,-0.043C0.29,-0.043 0.239,-0.065 0.199,-0.108C0.159,-0.151 0.139,-0.204 0.139,-0.266C0.139,-0.329 0.159,-0.383 0.199,-0.427C0.239,-0.471 0.29,-0.493 0.352,-0.493C0.413,-0.493 0.463,-0.471 0.502,-0.428C0.541,-0.385 0.561,-0.331 0.561,-0.268C0.561,-0.205 0.541,-0.151 0.502,-0.108C0.463,-0.065 0.413,-0.043 0.352,-0.043Z" style="fill-rule:nonzero;"/>
                    </g>
                    <g transform="matrix(72,0,0,72,853.307,806.727)">
                        <path d="M0.355,-0.549C0.263,-0.549 0.186,-0.503 0.141,-0.426L0.141,-0.535L0.081,-0.535L0.081,0.22L0.141,0.22L0.141,-0.107C0.186,-0.032 0.263,0.012 0.355,0.012C0.431,0.012 0.494,-0.015 0.545,-0.069C0.596,-0.123 0.621,-0.189 0.621,-0.268C0.621,-0.347 0.596,-0.413 0.545,-0.467C0.494,-0.522 0.431,-0.549 0.355,-0.549ZM0.352,-0.043C0.29,-0.043 0.239,-0.065 0.199,-0.108C0.159,-0.151 0.139,-0.204 0.139,-0.266C0.139,-0.329 0.159,-0.383 0.199,-0.427C0.239,-0.471 0.29,-0.493 0.352,-0.493C0.413,-0.493 0.463,-0.471 0.502,-0.428C0.541,-0.385 0.561,-0.331 0.561,-0.268C0.561,-0.205 0.541,-0.151 0.502,-0.108C0.463,-0.065 0.413,-0.043 0.352,-0.043Z" style="fill-rule:nonzero;"/>
                    </g>
                    <g transform="matrix(72,0,0,72,901.259,806.727)">
                        <path d="M0.22,0.012C0.273,0.012 0.317,-0.003 0.351,-0.034C0.385,-0.065 0.402,-0.102 0.402,-0.147C0.402,-0.208 0.369,-0.246 0.308,-0.275C0.292,-0.283 0.268,-0.293 0.237,-0.306L0.177,-0.332C0.138,-0.351 0.119,-0.378 0.119,-0.413C0.119,-0.464 0.157,-0.5 0.224,-0.5C0.279,-0.5 0.319,-0.478 0.344,-0.435L0.386,-0.469C0.352,-0.525 0.298,-0.553 0.225,-0.553C0.125,-0.553 0.061,-0.492 0.061,-0.411C0.061,-0.357 0.089,-0.315 0.146,-0.286C0.158,-0.279 0.179,-0.27 0.21,-0.257C0.241,-0.245 0.262,-0.236 0.274,-0.23C0.319,-0.207 0.342,-0.178 0.342,-0.143C0.342,-0.088 0.292,-0.042 0.22,-0.042C0.157,-0.042 0.11,-0.073 0.079,-0.135L0.031,-0.105C0.07,-0.026 0.141,0.012 0.22,0.012Z" style="fill-rule:nonzero;"/>
                    </g>
                    <g transform="matrix(72,0,0,72,950.867,806.727)">
                        <rect x="0.101" y="-0.739" width="0.061" height="0.739" style="fill-rule:nonzero;"/>
                    </g>
                    <g transform="matrix(72,0,0,72,969.803,806.727)">
                        <path d="M0.141,0L0.141,-0.3C0.141,-0.364 0.159,-0.412 0.194,-0.444C0.23,-0.477 0.271,-0.493 0.318,-0.493C0.417,-0.493 0.477,-0.424 0.477,-0.312L0.477,0L0.537,0L0.537,-0.323C0.537,-0.395 0.517,-0.451 0.476,-0.49C0.435,-0.529 0.385,-0.549 0.325,-0.549C0.238,-0.549 0.171,-0.512 0.139,-0.441L0.139,-0.535L0.081,-0.535L0.081,0L0.141,0Z" style="fill-rule:nonzero;"/>
                    </g>
                    <g transform="matrix(72,0,0,72,1013.87,806.727)">
                        <path d="M0.523,-0.43C0.478,-0.503 0.402,-0.547 0.311,-0.547C0.235,-0.547 0.172,-0.52 0.121,-0.466C0.07,-0.412 0.045,-0.346 0.045,-0.267C0.045,-0.188 0.07,-0.122 0.121,-0.067C0.172,-0.013 0.235,0.014 0.311,0.014C0.402,0.014 0.478,-0.029 0.523,-0.104L0.523,0L0.583,0L0.583,-0.755L0.523,-0.755L0.523,-0.43ZM0.314,-0.042C0.253,-0.042 0.202,-0.064 0.163,-0.107C0.124,-0.15 0.105,-0.204 0.105,-0.267C0.105,-0.33 0.124,-0.384 0.163,-0.427C0.202,-0.47 0.253,-0.492 0.314,-0.492C0.376,-0.492 0.427,-0.47 0.467,-0.427C0.507,-0.384 0.527,-0.331 0.527,-0.269C0.527,-0.206 0.507,-0.152 0.467,-0.108C0.427,-0.064 0.376,-0.042 0.314,-0.042Z" style="fill-rule:nonzero;"/>
                    </g>
                    <g transform="matrix(72,0,0,72,1061.75,806.727)">
                        <path d="M0.109,-0.619C0.137,-0.619 0.16,-0.641 0.16,-0.67C0.16,-0.699 0.137,-0.721 0.109,-0.721C0.08,-0.721 0.057,-0.699 0.057,-0.67C0.057,-0.641 0.08,-0.619 0.109,-0.619ZM0.137,-0.535L0.077,-0.535L0.077,0L0.137,0L0.137,-0.535Z" style="fill-rule:nonzero;"/>
                    </g>
                    <g transform="matrix(72,0,0,72,1077.8,806.727)">
                        <path d="M0.522,-0.432C0.477,-0.505 0.4,-0.548 0.311,-0.548C0.234,-0.548 0.171,-0.521 0.12,-0.468C0.07,-0.415 0.045,-0.349 0.045,-0.27C0.045,-0.19 0.07,-0.123 0.121,-0.068C0.172,-0.014 0.235,0.013 0.311,0.013C0.4,0.013 0.477,-0.031 0.522,-0.104L0.522,0L0.58,0L0.58,-0.535L0.522,-0.535L0.522,-0.432ZM0.314,-0.042C0.253,-0.042 0.202,-0.064 0.163,-0.107C0.124,-0.15 0.105,-0.204 0.105,-0.268C0.105,-0.331 0.124,-0.385 0.163,-0.428C0.202,-0.471 0.253,-0.493 0.314,-0.493C0.376,-0.493 0.427,-0.471 0.467,-0.428C0.507,-0.385 0.527,-0.332 0.527,-0.27C0.527,-0.206 0.507,-0.152 0.467,-0.108C0.427,-0.064 0.376,-0.042 0.314,-0.042Z" style="fill-rule:nonzero;"/>
                    </g>
                    <g transform="matrix(72,0,0,72,1143.25,806.727)">
                        <path d="M0.101,-0.739L0.101,0L0.162,0L0.162,-0.287L0.32,-0.287C0.399,-0.287 0.459,-0.309 0.501,-0.353C0.544,-0.398 0.565,-0.451 0.565,-0.513C0.565,-0.574 0.545,-0.627 0.504,-0.672C0.464,-0.717 0.406,-0.739 0.329,-0.739L0.101,-0.739ZM0.162,-0.344L0.162,-0.681L0.332,-0.681C0.437,-0.681 0.503,-0.611 0.503,-0.514C0.503,-0.417 0.434,-0.344 0.321,-0.344L0.162,-0.344Z" style="fill-rule:nonzero;"/>
                    </g>
                    <g transform="matrix(72,0,0,72,1186.31,806.727)">
                        <path d="M0.27,-0.093L0.081,-0.535L0.015,-0.535L0.251,-0.001L0.288,-0.001L0.524,-0.535L0.458,-0.535L0.27,-0.093Z" style="fill-rule:nonzero;"/>
                    </g>
                    <g transform="matrix(72,0,0,72,1225.12,806.727)">
                        <path d="M0.386,-0.08C0.352,-0.055 0.315,-0.043 0.274,-0.043C0.203,-0.043 0.168,-0.086 0.168,-0.173L0.168,-0.482L0.388,-0.482L0.388,-0.535L0.168,-0.535L0.168,-0.724L0.109,-0.724L0.109,-0.535L0.013,-0.535L0.013,-0.482L0.108,-0.482L0.108,-0.175C0.108,-0.058 0.162,0.012 0.269,0.012C0.325,0.012 0.372,-0.003 0.411,-0.034L0.386,-0.08Z" style="fill-rule:nonzero;"/>
                    </g>
                    <g transform="matrix(72,0,0,72,1272.71,806.727)">
                        <path d="M0.575,0L0.575,-0.059L0.162,-0.059L0.162,-0.739L0.101,-0.739L0.101,0L0.575,0Z" style="fill-rule:nonzero;"/>
                    </g>
                    <g transform="matrix(72,0,0,72,1312.88,806.727)">
                        <path d="M0.386,-0.08C0.352,-0.055 0.315,-0.043 0.274,-0.043C0.203,-0.043 0.168,-0.086 0.168,-0.173L0.168,-0.482L0.388,-0.482L0.388,-0.535L0.168,-0.535L0.168,-0.724L0.109,-0.724L0.109,-0.535L0.013,-0.535L0.013,-0.482L0.108,-0.482L0.108,-0.175C0.108,-0.058 0.162,0.012 0.269,0.012C0.325,0.012 0.372,-0.003 0.411,-0.034L0.386,-0.08Z" style="fill-rule:nonzero;"/>
                    </g>
                    <g transform="matrix(72,0,0,72,1342.19,806.727)">
                        <path d="M0.523,-0.43C0.478,-0.503 0.402,-0.547 0.311,-0.547C0.235,-0.547 0.172,-0.52 0.121,-0.466C0.07,-0.412 0.045,-0.346 0.045,-0.267C0.045,-0.188 0.07,-0.122 0.121,-0.067C0.172,-0.013 0.235,0.014 0.311,0.014C0.402,0.014 0.478,-0.029 0.523,-0.104L0.523,0L0.583,0L0.583,-0.755L0.523,-0.755L0.523,-0.43ZM0.314,-0.042C0.253,-0.042 0.202,-0.064 0.163,-0.107C0.124,-0.15 0.105,-0.204 0.105,-0.267C0.105,-0.33 0.124,-0.384 0.163,-0.427C0.202,-0.47 0.253,-0.492 0.314,-0.492C0.376,-0.492 0.427,-0.47 0.467,-0.427C0.507,-0.384 0.527,-0.331 0.527,-0.269C0.527,-0.206 0.507,-0.152 0.467,-0.108C0.427,-0.064 0.376,-0.042 0.314,-0.042Z" style="fill-rule:nonzero;"/>
                    </g>
                </g>
            </g>
            <g transform="matrix(1.40184,0,0,1.40184,-828.738,237.084)">
                <g transform="matrix(1.01724,0,0,1.01724,-325.155,-4.46552)">
                    <path d="M1488,201C1493.35,201 1498.36,202.449 1502.66,204.976C1511.24,210.016 1512.45,247.895 1505.41,253.188C1500.56,256.837 1494.53,259 1488,259C1471.99,259 1459,246.006 1459,230C1459,213.994 1471.99,201 1488,201Z" style="fill:rgb(229,106,12);"/>
                </g>
                <g transform="matrix(1,0,0,1,-299,0)">
                    <path d="M1518.77,175.054C1528.36,159.431 1545.6,149 1565.25,149C1595.33,149 1619.75,173.421 1619.75,203.5C1619.75,233.579 1595.33,258 1565.25,258C1557.13,258 1549.43,256.221 1542.5,253.031C1554.73,245.685 1562.92,232.291 1562.92,217C1562.92,193.82 1544.1,175 1520.92,175C1520.2,175 1519.48,175.018 1518.77,175.054C1513.68,183.337 1510.75,193.079 1510.75,203.5C1510.75,225.46 1523.77,244.403 1542.5,253.031C1536.19,256.82 1528.81,259 1520.92,259C1497.74,259 1478.92,240.18 1478.92,217C1478.92,194.541 1496.59,176.176 1518.77,175.054Z" style="fill:rgb(239,127,41);"/>
                </g>
            </g>
        </g>
    </g>
</svg>
